<?xml version="1.0" encoding="UTF-8" standalone="no"?>
<!-- Created with Inkscape (http://www.inkscape.org/) -->

<svg
   width="100mm"
   height="100mm"
   viewBox="0 0 100 100"
   version="1.1"
   id="svg1"
   xml:space="preserve"
   inkscape:version="1.3.2 (091e20e, 2023-11-25, custom)"
   sodipodi:docname="favicon.svg"
   xmlns:inkscape="http://www.inkscape.org/namespaces/inkscape"
   xmlns:sodipodi="http://sodipodi.sourceforge.net/DTD/sodipodi-0.dtd"
   xmlns="http://www.w3.org/2000/svg"
   xmlns:svg="http://www.w3.org/2000/svg"><sodipodi:namedview
     id="namedview1"
     pagecolor="#ffffff"
     bordercolor="#999999"
     borderopacity="1"
     inkscape:showpageshadow="2"
     inkscape:pageopacity="0"
     inkscape:pagecheckerboard="0"
     inkscape:deskcolor="#d1d1d1"
     inkscape:document-units="mm"
     inkscape:zoom="1.4485269"
     inkscape:cx="115.63472"
     inkscape:cy="221.94962"
     inkscape:window-width="1920"
     inkscape:window-height="1009"
     inkscape:window-x="-8"
     inkscape:window-y="-8"
     inkscape:window-maximized="1"
     inkscape:current-layer="layer1" /><defs
     id="defs1" /><g
     inkscape:label="Capa 1"
     inkscape:groupmode="layer"
     id="layer1"><g
       id="g13"
       transform="matrix(1.813506,0,0,1.9731663,-56.706749,-70.301093)"><path
         style="fill:#32f9fb"
         d="m 56.717669,56.706891 0.04899,-0.127673 c 0.02695,-0.07022 -0.372915,-2.175125 -0.88858,-4.677566 -1.070619,-5.195545 -1.09462,-5.334465 -0.932233,-5.395887 0.144204,-0.05454 4.838242,-0.09281 7.257614,-0.08698 0.261576,6.3e-4 0.546459,-0.04075 0.800766,0.166559 0.395869,0.322712 1.00679,2.188849 2.09199,5.065671 1.0852,2.876821 2.011656,5.217729 2.058791,5.202018 0.04713,-0.01571 0.612878,-1.71387 0.938586,-2.563585 0.304747,-0.79503 0.586555,-2.127291 0.950091,-2.371039 0.363536,-0.243747 1.084029,-0.176143 1.630528,-0.171758 0.672557,0.0054 1.72382,-0.09883 2.002983,0.243549 0.271061,0.332439 0.54632,1.516293 0.811648,2.277201 0.28689,0.822741 0.806931,2.432069 0.843692,2.474078 0.109412,0.125031 0.185982,-0.1235 1.601675,-5.198713 0.746892,-2.677584 1.398125,-4.993508 1.447184,-5.1465 0.165981,-0.517612 0.06226,-0.504912 4.664315,-0.571133 l 4.209228,-0.06057 0.0994,0.218153 c 0.07638,0.167627 0.07562,0.341629 -0.0033,0.751267 -0.568546,2.952364 -6.050523,28.666456 -6.127048,28.739905 -0.111249,0.106774 -6.871349,0.351747 -7.115991,0.257869 -0.07454,-0.0286 -0.619273,-1.045183 -1.210515,-2.259064 -0.591242,-1.213881 -1.116096,-2.193445 -1.166343,-2.176808 -0.05025,0.01664 -0.586658,0.924504 -1.192025,2.017483 -0.605367,1.092979 -1.13149,2.032871 -1.169163,2.088649 -0.05145,0.07617 -0.984548,0.101414 -3.748316,0.101414 h -3.679818 l -0.07861,-0.1905 c -0.04324,-0.104775 -0.712129,-3.1242 -1.486427,-6.709833 -1.662868,-7.700439 -1.480456,-6.900334 -1.573176,-6.900334 -0.207622,3.01337 -0.620002,6.050942 -2.066903,8.76913 z"
         id="path16"
         sodipodi:nodetypes="csssssssazasasssscscssssssscssscc" /><path
         style="fill:#da41f9"
         d="m 43.272025,76.136122 c -2.054002,-0.144959 -4.077543,-0.972277 -5.820874,-2.068057 -1.415538,-0.889744 -2.655662,-2.12622 -3.562537,-3.530845 -1.102728,-1.707975 -1.673546,-3.733943 -2.1299,-5.715086 -0.366363,-1.590472 -0.553882,-3.243846 -0.469641,-4.873793 0.091,-1.760616 0.336698,-3.570762 1.047314,-5.184166 0.856924,-1.945588 2.121489,-3.79684 3.759629,-5.151878 1.744043,-1.44264 3.88538,-2.684221 6.13813,-2.90335 3.515803,-0.341989 8.503722,0.62112 10.273277,2.600049 l 0.324944,0.363391 0.07146,0.575354 c 0.0393,0.316445 0.09852,1.305299 0.131597,2.197454 l 0.06014,1.6221 -0.609669,1.114872 c -0.335318,0.613179 -0.597449,1.178634 -0.582513,1.256566 l 0.02716,0.141695 2.327306,0.06282 c 1.280018,0.03455 2.374931,0.04527 2.433139,0.02382 0.181293,-0.0668 0.126927,-0.415093 -0.648428,-4.15406 -0.414843,-2.000488 -0.777379,-3.827751 -0.805635,-4.060584 l -0.05138,-0.423333 0.09234,0.211666 c 0.05079,0.116417 1.457475,5.425866 3.125977,11.798775 3.575709,13.657568 2.536794,11.759989 6.394123,11.678878 l 3.201397,-0.06732 1.205055,-2.230104 c 0.662781,-1.226557 1.242669,-2.267717 1.288642,-2.31369 0.110492,-0.110492 0.197939,0.02024 1.538564,2.300127 1.389132,2.362381 0.834284,2.081049 4.248713,2.154277 3.51126,0.0753 2.535165,1.843631 6.213144,-11.255944 3.17151,-11.295724 3.32733,-11.83239 3.33802,-11.496615 0.0071,0.221921 -0.233919,1.387578 -2.74436,13.274615 -1.052289,4.982633 -2.107686,9.992784 -2.345327,11.133667 -0.23764,1.140883 -0.477105,2.123493 -0.532145,2.183578 -0.130136,0.142064 -6.966497,0.407756 -7.108038,0.27625 -0.05014,-0.04659 -0.586464,-1.065129 -1.191831,-2.263431 -1.318045,-2.609021 -1.037057,-2.591886 -2.383573,-0.145354 -0.612465,1.11281 -1.156892,2.070915 -1.209838,2.129124 -0.07412,0.08148 -0.920977,0.105833 -3.680894,0.105833 -2.764588,0 -3.604647,-0.02421 -3.672134,-0.105833 -0.04813,-0.05821 -0.749725,-3.151194 -1.559104,-6.873302 -1.547977,-7.118717 -1.676124,-7.566995 -1.676124,-5.863334 0,2.280932 -0.614689,5.503503 -1.991413,7.810932 -1.012588,1.697126 -2.600331,3.11806 -4.360057,4.017467 -2.454716,1.25462 -5.354741,1.840842 -8.104656,1.646769 z m 3.748512,-11.846706 c 0.413481,-0.172763 0.385966,-0.252323 -0.468386,-1.354371 l -0.762,-0.982922 -3.43e-4,-0.69618 c -0.0016,-3.308355 0.170297,-3.126604 -0.838395,-2.683034 -2.303715,1.013054 -2.585202,4.30611 -0.519217,5.407269 0.775893,0.413547 1.991192,0.558743 2.588341,0.309238 z"
         id="path15"
         sodipodi:nodetypes="aaaaaaaascsscsscsssscssscssssscsssssssssssaaasscssss" /><path
         style="fill:#75018d"
         d="m 44.787503,76.061014 c -3.077858,0.07935 -6.377904,-1.123682 -8.673743,-3.175176 -5.898495,-5.270721 -4.797601,-15.501076 -4.359168,-15.501076 0.04602,0 0.05735,0.06667 0.02517,0.148166 -0.532085,1.347541 -0.120182,5.690899 1.030047,8.19071 1.002937,2.179699 2.852994,3.982866 4.839679,5.328248 1.512697,1.024398 3.319269,1.713949 5.134996,1.915886 2.33558,0.259752 4.795525,-0.09998 6.985236,-0.952954 1.613665,-0.628585 3.01847,-1.763985 4.266277,-2.964823 1.169307,-1.125293 2.163101,-2.457988 2.929579,-3.888399 0.326881,-0.610029 0.718054,-2.327565 0.688763,-1.958696 -0.0023,1.6921 -0.986493,6.457487 -3.095904,8.69862 -2.426129,2.57763 -6.232294,4.06827 -9.770932,4.159494 z m 2.421013,-12.432085 c -1.252327,-1.573946 -1.281767,-1.454968 0.366597,-1.481556 1.838853,-0.02966 1.957067,0.461582 0.385101,1.600308 -0.423025,0.306438 -0.412006,0.308178 -0.751698,-0.118752 z m -4.402102,-0.846667 c -0.680219,-0.680219 -0.801155,-1.682779 -0.879439,-2.591694 -0.07875,-0.914365 0.05518,-1.880558 0.425872,-2.720114 0.370503,-0.839136 0.961897,-1.63328 1.722369,-2.146218 0.503642,-0.339706 1.139871,-0.473861 1.745202,-0.525138 0.717284,-0.06076 1.453502,0.05927 2.143169,0.265539 0.39066,0.116839 1.044612,0.540111 1.097225,0.540825 0.163549,0.0022 1.323328,-1.688205 3.295133,-4.802793 0.488332,-0.77135 0.494562,-0.752099 0.595732,1.840759 l 0.05451,1.397 -0.66855,1.227667 -0.668549,1.227667 -2.86867,0.02231 c -3.340582,0.02598 -3.094933,-0.04896 -3.094933,0.944164 v 0.734073 c -0.26773,0.0764 -1.162676,0.377157 -1.59,0.785667 -0.561067,0.536365 -0.966621,1.279124 -1.124454,2.039105 -0.114143,0.549609 0.02893,1.265695 0.158756,1.67651 0.203797,0.644708 0.146924,0.658731 -0.343374,0.08467 z"
         id="path14"
         sodipodi:nodetypes="aascaaaaaacaasssssaaaaacsscccsscaacss" /><path
         style="fill:#034f4f"
         d="m 73.078982,75.658964 c -0.03767,-0.05416 -0.563796,-1.073331 -1.169163,-2.264833 -1.316098,-2.590388 -1.037501,-2.571717 -2.370667,-0.158874 -0.605367,1.095629 -1.152957,2.054179 -1.216867,2.130112 l -0.1162,0.13806 h -3.5776 c -2.759537,0 -3.597363,-0.0242 -3.664034,-0.105833 -0.04754,-0.05821 -0.702165,-2.944284 -1.454726,-6.4135 -0.752561,-3.469217 -1.460095,-6.726767 -1.572298,-7.239001 -0.112203,-0.512233 -0.321866,-1.712383 -0.465917,-2.667 -0.184846,-1.224965 -0.322639,-1.869466 -0.468301,-2.190398 -0.113515,-0.250102 -0.206391,-0.523427 -0.206391,-0.607388 0,-0.08396 -0.339286,-1.784332 -0.753969,-3.778602 -0.414683,-1.99427 -0.777219,-3.816446 -0.805636,-4.049279 l -0.05167,-0.423333 0.09234,0.211666 c 0.05079,0.116417 1.436126,5.431494 3.125977,11.798775 3.059077,11.526463 2.986381,11.552922 6.264965,11.58201 l 3.330555,0.02955 1.205055,-2.230104 c 0.662781,-1.226557 1.242669,-2.267717 1.288642,-2.31369 0.110492,-0.110492 0.197939,0.02024 1.538564,2.300127 1.389132,2.362381 0.833829,2.106767 4.248713,2.154277 3.091497,0.04301 3.116375,0.196868 6.213144,-11.255944 1.653855,-6.116469 3.16643,-11.224684 3.23036,-11.387667 l 0.116236,-0.296334 -0.03693,0.369899 c -0.06688,0.669824 -5.493242,26.297658 -5.591126,26.405974 -0.07574,0.08381 -4.654764,0.318305 -7.006056,0.358788 -0.03218,5.54e-4 -0.08933,-0.0433 -0.127,-0.09746 z"
         id="path13"
         sodipodi:nodetypes="sssscssssssssscssscsssssscsssss" /></g></g></svg>
