<?xml version="1.0" encoding="UTF-8" standalone="no"?>
<!-- Created with Inkscape (http://www.inkscape.org/) -->

<svg
   width="195mm"
   height="195mm"
   viewBox="0 0 195 195"
   version="1.1"
   id="svg1"
   xml:space="preserve"
   inkscape:version="1.3.2 (091e20e, 2023-11-25, custom)"
   sodipodi:docname="favicon.svg"
   xmlns:inkscape="http://www.inkscape.org/namespaces/inkscape"
   xmlns:sodipodi="http://sodipodi.sourceforge.net/DTD/sodipodi-0.dtd"
   xmlns="http://www.w3.org/2000/svg"
   xmlns:svg="http://www.w3.org/2000/svg"><sodipodi:namedview
     id="namedview1"
     pagecolor="#ffffff"
     bordercolor="#999999"
     borderopacity="1"
     inkscape:showpageshadow="2"
     inkscape:pageopacity="0"
     inkscape:pagecheckerboard="0"
     inkscape:deskcolor="#d1d1d1"
     inkscape:document-units="mm"
     inkscape:zoom="0.51213161"
     inkscape:cx="204.04911"
     inkscape:cy="575.0475"
     inkscape:window-width="1920"
     inkscape:window-height="1009"
     inkscape:window-x="-8"
     inkscape:window-y="-8"
     inkscape:window-maximized="1"
     inkscape:current-layer="layer1" /><defs
     id="defs1" /><g
     inkscape:label="Capa 1"
     inkscape:groupmode="layer"
     id="layer1"><g
       id="g76"><path
         style="fill:#32f9fb"
         d="m 49.408784,147.27789 c -1.014527,-0.12266 -3.166499,-0.40833 -4.782159,-0.63482 l -2.937564,-0.41179 -2.59622,-1.01844 c -4.338028,-1.70171 -9.716806,-4.90569 -13.115227,-7.81236 l -1.823062,-1.55926 -1.747915,-2.37163 c -3.38344,-4.59075 -5.145565,-7.94275 -8.173114,-15.54729 l -1.258931,-3.16216 -0.857669,-5.13852 -0.857668,-5.13851 0.144235,-6.58784 0.144236,-6.587838 1.187433,-4.639519 1.187433,-4.63952 2.700873,-4.978724 2.700873,-4.978723 2.349571,-2.635135 2.34957,-2.635135 2.329299,-2.006735 2.329298,-2.006736 3.380246,-1.844965 c 1.859135,-1.014732 4.324363,-2.279693 5.478284,-2.811026 l 2.098038,-0.966059 2.118178,-0.541892 c 2.963017,-0.758025 4.487492,-0.985159 8.627253,-1.285383 l 3.610425,-0.261836 2.055115,0.272436 c 3.587285,0.475548 6.187888,1.048183 9.16998,2.019167 l 2.898648,0.943814 2.371622,1.175185 c 1.304392,0.646352 3.142399,1.656686 4.084459,2.245189 l 1.712838,1.070003 1.011342,1.131005 1.011342,1.131005 0.222408,1.790711 c 0.122325,0.984891 0.306635,4.062566 0.409579,6.839278 l 0.18717,5.048566 -1.882069,3.441646 -1.882069,3.441646 v 0.411639 0.411639 l 0.329392,0.101373 c 0.181165,0.05575 3.564591,0.170239 7.518725,0.25441 l 7.189333,0.153039 0.152482,-0.397364 0.152483,-0.397364 -2.918069,-14.160925 C 86.184274,64.213633 84.79414,57.279322 84.700025,56.592563 l -0.171117,-1.248652 0.358857,-0.135736 C 85.085136,55.133521 90.760642,54.901264 97.5,54.692049 l 12.25338,-0.38039 0.29253,0.315454 c 0.16089,0.1735 3.05596,7.641223 6.4335,16.594939 l 6.14098,16.279484 0.26673,-0.08891 0.26673,-0.08891 2.65449,-7.8899 2.6545,-7.889899 5.66554,0.09781 5.66554,0.09781 0.39527,0.207191 0.39527,0.207191 2.21686,7.336888 c 1.21927,4.035289 2.31047,7.443864 2.42488,7.574611 l 0.20803,0.237722 0.27521,-0.632992 c 0.15137,-0.348146 2.17716,-7.451405 4.50176,-15.78502 2.3246,-8.333615 4.35147,-15.541616 4.50416,-16.01778 l 0.27762,-0.865752 0.56939,-0.361655 0.56939,-0.361656 13.10065,-0.188511 13.10065,-0.188512 0.30936,0.678974 0.30936,0.678974 -0.31952,1.659243 c -0.17574,0.912583 -4.46719,21.343702 -9.53656,45.402487 l -9.21702,43.74324 -0.31603,0.30332 -0.31603,0.30332 -10.70485,0.33056 -10.70486,0.33057 -0.42181,-0.16187 -0.42182,-0.16186 -3.34575,-6.86917 -3.34574,-6.86916 -0.28434,0.0941 -0.28434,0.0942 -3.42568,6.18499 c -1.88412,3.40175 -3.52161,6.32704 -3.63886,6.50064 l -0.21319,0.31564 h -11.45293 -11.45294 l -0.24467,-0.59291 c -0.13457,-0.32609 -2.2164,-9.72364 -4.6263,-20.88344 -2.409897,-11.1598 -4.444568,-20.55735 -4.521491,-20.88345 l -0.139859,-0.5929 h -0.234946 -0.234947 v 3.00422 3.00422 l -0.519803,3.04052 c -0.652392,3.81608 -1.76604,8.35756 -3.03291,12.36827 l -0.980164,3.10304 -1.665124,2.77245 -1.665123,2.77246 -2.282517,2.48658 -2.282516,2.48658 -2.943016,1.87476 -2.943016,1.87475 -4.216216,2.06271 -4.216216,2.06271 -2.371622,0.68501 c -1.304392,0.37675 -3.438851,0.85947 -4.743243,1.07271 l -2.371622,0.3877 -3.030405,-0.0323 c -1.666723,-0.0178 -3.860473,-0.13263 -4.875,-0.25528 z m 10.812518,-36.72052 0.913833,-0.38183 v -0.38713 -0.38713 l -2.371621,-3.05921 -2.371622,-3.05921 -0.0011,-2.16677 c -5.87e-4,-1.19172 -0.07788,-3.672898 -0.171772,-5.513725 l -0.170703,-3.34696 -0.328001,-0.125866 -0.328001,-0.125865 -1.610913,0.761841 -1.610913,0.761841 -1.331039,1.331039 -1.331039,1.331039 -0.672601,1.511702 -0.6726,1.511702 -0.137079,2.142642 -0.137079,2.14263 0.583844,1.92218 0.583844,1.92218 0.742284,0.6934 c 0.408257,0.38137 1.47313,1.08293 2.366385,1.55903 l 1.6241,0.86564 1.235298,0.20833 c 0.679413,0.11458 1.920947,0.22228 2.758964,0.23933 l 1.523666,0.031 z"
         id="path79" /><path
         style="fill:#da41f9"
         d="m 49.408784,147.27789 c -1.014527,-0.12266 -3.166499,-0.40833 -4.782159,-0.63482 l -2.937564,-0.41179 -2.59622,-1.01844 c -4.338028,-1.70171 -9.716806,-4.90569 -13.115227,-7.81236 l -1.823062,-1.55926 -1.747915,-2.37163 c -3.38344,-4.59075 -5.145565,-7.94275 -8.173114,-15.54729 l -1.258931,-3.16216 -0.857669,-5.13852 -0.857668,-5.13851 0.144235,-6.58784 0.144236,-6.587838 1.187433,-4.639519 1.187433,-4.63952 2.700873,-4.978724 2.700873,-4.978723 2.349571,-2.635135 2.34957,-2.635135 2.329299,-2.006735 2.329298,-2.006736 3.380246,-1.844965 c 1.859135,-1.014732 4.324363,-2.279693 5.478284,-2.811026 l 2.098038,-0.966059 2.118178,-0.541892 c 2.963017,-0.758025 4.487492,-0.985159 8.627253,-1.285383 l 3.610425,-0.261836 2.055115,0.272436 c 3.587285,0.475548 6.187888,1.048183 9.16998,2.019167 l 2.898648,0.943814 2.371622,1.175185 c 1.304392,0.646352 3.142399,1.656686 4.084459,2.245189 l 1.712838,1.070003 1.011342,1.131005 1.011342,1.131005 0.222408,1.790711 c 0.122325,0.984891 0.306635,4.062566 0.409579,6.839278 l 0.18717,5.048566 -1.897512,3.469886 -1.897512,3.469886 0.08452,0.441007 0.08452,0.441007 7.243424,0.195516 c 3.983883,0.107534 7.39165,0.140901 7.572816,0.07415 l 0.329392,-0.121367 V 85.96892 c 0,-0.408962 -1.056391,-5.837768 -2.347536,-12.064014 -1.291144,-6.226245 -2.419488,-11.913352 -2.507431,-12.638014 l -0.159895,-1.317568 0.287388,0.658784 c 0.158063,0.362331 4.536193,16.887269 9.729178,36.722085 l 9.441785,36.063297 0.24757,0.24757 0.24757,0.24757 9.96391,-0.20952 9.96392,-0.20952 3.75057,-6.94089 c 2.06281,-3.81749 3.86764,-7.05796 4.01072,-7.20105 l 0.26015,-0.26015 0.521,0.74497 c 0.28655,0.40973 2.08989,3.41304 4.00742,6.67402 1.91753,3.26098 3.65357,6.06021 3.85788,6.22052 l 0.37146,0.29148 8.9942,0.19289 8.9942,0.1929 0.32554,-0.35262 0.32555,-0.35261 9.69228,-34.520266 c 5.33076,-18.986149 9.8449,-34.935304 10.03143,-35.442568 l 0.33914,-0.922297 0.0186,0.583212 c 0.022,0.6907 -0.72805,4.318649 -8.54145,41.315439 -3.27511,15.50777 -6.55989,31.10118 -7.29951,34.65202 l -1.34477,6.45609 -0.31146,0.34 -0.31146,0.34001 -10.76381,0.3917 -10.7638,0.39171 -0.28374,-0.26363 c -0.15605,-0.14499 -1.82529,-3.31507 -3.70941,-7.04462 l -3.42567,-6.781 -0.26352,0.0157 -0.26351,0.0157 -3.46585,6.29722 c -1.90621,3.46347 -3.60067,6.44544 -3.76545,6.62661 l -0.29962,0.32939 h -11.15666 -11.15667 l -0.27235,-0.32939 -0.27236,-0.32939 -4.580141,-21.06283 -4.580148,-21.06282 -0.318281,-0.1061 -0.318281,-0.10609 v 3.02618 3.02618 l -0.519803,3.04052 c -0.652392,3.81608 -1.76604,8.35756 -3.03291,12.36827 l -0.980164,3.10304 -1.665124,2.77245 -1.665123,2.77246 -2.282517,2.48658 -2.282516,2.48658 -2.943016,1.87476 -2.943016,1.87475 -4.216216,2.06271 -4.216216,2.06271 -2.371622,0.68501 c -1.304392,0.37675 -3.438851,0.85947 -4.743243,1.07271 l -2.371622,0.3877 -3.030405,-0.0323 c -1.666723,-0.0178 -3.860473,-0.13263 -4.875,-0.25528 z m 10.812518,-36.72052 0.913833,-0.38183 v -0.38713 -0.38713 l -2.371621,-3.05921 -2.371622,-3.05921 -0.0011,-2.16677 c -5.87e-4,-1.19172 -0.07788,-3.672898 -0.171772,-5.513725 l -0.170703,-3.34696 -0.328001,-0.125866 -0.328001,-0.125865 -1.610913,0.761841 -1.610913,0.761841 -1.331039,1.331039 -1.331039,1.331039 -0.672601,1.511702 -0.6726,1.511702 -0.137079,2.142642 -0.137079,2.14263 0.583844,1.92218 0.583844,1.92218 0.742284,0.6934 c 0.408257,0.38137 1.47313,1.08293 2.366385,1.55903 l 1.6241,0.86564 1.235298,0.20833 c 0.679413,0.11458 1.920947,0.22228 2.758964,0.23933 l 1.523666,0.031 z"
         id="path78" /><path
         style="fill:#75018d"
         d="m 49.540541,147.01721 c -1.086994,-0.12015 -3.280744,-0.41291 -4.875,-0.65056 l -2.898649,-0.43209 -2.305941,-0.8862 -2.305941,-0.8862 -2.96433,-1.63232 c -3.575279,-1.96876 -5.541689,-3.2649 -7.915243,-5.21728 l -1.788752,-1.47134 -1.702791,-2.29646 c -0.936535,-1.26306 -2.350626,-3.36484 -3.142424,-4.67063 l -1.439633,-2.37417 -1.422207,-3.23478 c -0.782213,-1.77913 -1.899359,-4.47988 -2.482545,-6.00167 l -1.060338,-2.76689 -0.857437,-5.00676 -0.857438,-5.00675 0.143115,-6.456083 0.143114,-6.456081 0.3198,-1.251689 0.3198,-1.251689 h 0.260424 0.260423 l -0.182087,0.461148 -0.182088,0.461149 -0.141184,5.138513 -0.141185,5.138512 0.415618,3.33696 0.415618,3.33695 0.935203,3.24842 0.935203,3.24842 0.968695,1.58355 c 0.532782,0.87095 1.91369,3.00651 3.068685,4.7457 l 2.09999,3.16216 2.661046,2.72154 2.661046,2.72154 3.030406,2.12982 3.030405,2.12982 3.22374,1.5298 3.223739,1.52979 4.022882,0.93811 4.022882,0.9381 3.952703,0.14946 3.952703,0.14945 3.722024,-0.53856 3.722025,-0.53857 3.39284,-0.97049 3.39284,-0.97049 3.22806,-1.82469 3.228059,-1.8247 2.747516,-2.34878 c 2.886933,-2.46796 3.112707,-2.71412 7.122683,-7.76574 l 2.510124,-3.16216 1.498348,-2.89865 1.498348,-2.89865 0.972424,-2.97345 c 0.534833,-1.6354 1.047461,-3.04849 1.139174,-3.1402 l 0.166751,-0.16676 -0.0017,1.29561 -0.0017,1.29561 -0.504101,2.89865 c -0.703945,4.04778 -1.693417,8.11075 -2.952028,12.12162 l -1.074977,3.42568 -1.600061,2.69416 -1.600061,2.69416 -2.117562,2.38855 -2.117562,2.38855 -2.813704,1.81831 -2.813703,1.8183 -4.03564,2.02119 -4.035641,2.02119 -2.777226,0.90975 -2.777227,0.90975 -2.50506,0.37764 -2.50506,0.37764 -2.766892,-0.0326 c -1.521791,-0.0179 -3.65625,-0.13094 -4.743243,-0.2511 z m 91.784129,-1.05415 c -0.11725,-0.15781 -1.75474,-3.32986 -3.63886,-7.04898 l -3.42567,-6.76205 -0.26352,0.0271 -0.26351,0.0271 -3.46585,6.29722 c -1.90621,3.46347 -3.60067,6.44544 -3.76545,6.62661 l -0.29962,0.32939 h -11.15666 -11.15667 l -0.2721,-0.32939 -0.27209,-0.32939 -4.517947,-20.81757 c -2.484869,-11.44966 -4.794478,-21.76622 -5.132465,-22.92568 l -0.614521,-2.108106 -0.721671,-4.875 -0.72167,-4.875 -0.493741,-1.317567 c -0.271557,-0.724662 -0.4938,-1.618806 -0.493873,-1.986986 -7.4e-5,-0.36818 -1.056524,-5.763619 -2.347669,-11.989865 -1.291144,-6.226245 -2.419488,-11.913352 -2.507431,-12.638014 l -0.159895,-1.317568 0.287388,0.658784 c 0.158063,0.362331 4.536193,16.887269 9.729178,36.722085 l 9.441787,36.063297 0.24757,0.24757 0.24757,0.24757 9.96391,-0.20952 9.96392,-0.20952 3.75057,-6.94089 c 2.06281,-3.81749 3.86764,-7.05796 4.01072,-7.20105 l 0.26015,-0.26015 0.521,0.74497 c 0.28655,0.40973 2.08989,3.41304 4.00742,6.67402 1.91753,3.26098 3.65357,6.06021 3.85788,6.22052 l 0.37146,0.29148 8.9942,0.19289 8.9942,0.1929 0.32554,-0.35262 0.32555,-0.35261 9.69228,-34.520266 c 5.33076,-18.986149 9.8449,-34.935304 10.03143,-35.442568 l 0.33914,-0.922297 0.0186,0.583212 c 0.022,0.6907 -0.72805,4.318649 -8.54145,41.315439 -3.27511,15.50777 -6.55989,31.10118 -7.29951,34.65202 l -1.34477,6.45609 -0.31164,0.34018 -0.31163,0.34018 -10.25683,0.37861 c -5.64125,0.20824 -10.51663,0.38126 -10.83418,0.38448 l -0.57735,0.006 z M 60.80636,108.50169 c -0.490098,-0.61596 -1.390721,-1.76215 -2.001385,-2.54708 l -1.110298,-1.42716 0.09494,-0.28568 0.09494,-0.28569 4.062791,-0.0655 4.062791,-0.0655 0.344673,0.22228 0.344673,0.22229 -0.173973,0.69316 -0.173974,0.69317 -1.084907,1.23252 c -1.052732,1.19597 -2.944088,2.73318 -3.362846,2.73318 -0.113484,0 -0.607324,-0.50397 -1.097421,-1.11993 z m -13.700944,-2.63514 -1.181577,-1.38344 -0.924396,-1.8446 c -0.508418,-1.01452 -1.117633,-2.51504 -1.353811,-3.334472 l -0.429416,-1.489881 v -2.629083 -2.629083 l 0.637602,-1.693952 c 0.350681,-0.931674 1.077378,-2.444316 1.614883,-3.361428 l 0.977281,-1.667477 1.744914,-1.757363 1.744915,-1.757363 1.538651,-0.578123 1.538651,-0.578123 h 3.370912 3.370912 l 3.259356,1.181767 c 1.792646,0.649971 3.393335,1.183586 3.557088,1.185811 l 0.297732,0.004 1.038972,-1.383446 c 0.912439,-1.21496 5.945481,-8.871864 8.918949,-13.568641 0.572665,-0.90456 1.114828,-1.645692 1.204807,-1.64696 l 0.163598,-0.0023 0.158039,1.515203 c 0.08692,0.833362 0.234382,3.471791 0.327691,5.863176 l 0.169653,4.347973 -2.080769,3.820946 -2.08077,3.820946 -8.928346,0.06943 -8.928347,0.06944 -0.352106,0.292222 -0.352106,0.292222 v 2.284702 2.284702 l -1.119932,0.301636 -1.119932,0.301636 -1.299224,0.86339 c -0.714572,0.474864 -1.682063,1.24623 -2.14998,1.714146 l -0.850757,0.850757 -0.869955,1.76713 -0.869955,1.767129 -0.09757,2.398431 -0.09757,2.39843 0.520616,1.64696 0.520616,1.64696 h -0.203872 c -0.112129,0 -0.735581,-0.62255 -1.385448,-1.38345 z"
         id="path77" /><path
         style="fill:#034f4f"
         d="m 141.32467,145.94354 c -0.11725,-0.16855 -1.75474,-3.3406 -3.63886,-7.04899 l -3.42567,-6.74252 -0.26352,0.024 -0.26351,0.024 -3.42568,6.19999 c -1.88412,3.41 -3.58842,6.39336 -3.78733,6.62969 l -0.36166,0.42969 h -11.13479 -11.13479 l -0.26902,-0.32939 -0.26901,-0.32939 -4.258629,-19.63176 c -2.342243,-10.79747 -4.544347,-20.93615 -4.893563,-22.53041 -0.349217,-1.59425 -1.001763,-5.329557 -1.450102,-8.300672 l -0.815163,-5.402027 -0.642362,-1.41529 c -0.353299,-0.778409 -0.642362,-1.629095 -0.642362,-1.890412 0,-0.261318 -1.055983,-5.553491 -2.346628,-11.760386 C 87.011376,67.662828 85.883032,61.991554 85.79459,61.266892 l -0.160803,-1.317568 0.287388,0.658784 c 0.158063,0.362331 4.536193,16.887269 9.729178,36.722085 l 9.441787,36.063297 0.24757,0.24757 0.24757,0.24757 9.96391,-0.20952 9.96392,-0.20952 3.75057,-6.94089 c 2.06281,-3.81749 3.86764,-7.05796 4.01072,-7.20105 l 0.26015,-0.26015 0.521,0.74497 c 0.28655,0.40973 2.08989,3.41304 4.00742,6.67402 1.91753,3.26098 3.65357,6.06021 3.85788,6.22052 l 0.37146,0.29148 8.9942,0.19289 8.9942,0.1929 0.32554,-0.35262 0.32555,-0.35261 9.69228,-34.520266 c 5.33076,-18.986149 9.85508,-34.935304 10.05406,-35.442568 l 0.36177,-0.922297 -0.11495,1.151258 c -0.0632,0.633192 -3.93745,19.309712 -8.60939,41.503383 l -8.49445,40.35212 -0.29778,0.32951 -0.29778,0.32951 -10.66277,0.39201 c -5.86452,0.21561 -10.7447,0.39343 -10.84485,0.39516 -0.10014,0.002 -0.27801,-0.13478 -0.39527,-0.30333 z"
         id="path76" /></g></g></svg>
